# xmcd
#
# Track frame offsets:
#  150
#  11050
#  20310
#  30650
#  36633
#  48610
#  60788
#  70868
#  80383
#  93190
#
# Disc length: 1324 seconds
#
# Revision: 0
# Processed by: cddbd v1.5.1PL2 Copyright (c) Steve Scherf et al.
# Submitted via: Collectorz.com_Music_Collector 6.11
#
DISCID=75052a0a
DTITLE=Williams, Hank  - Jambalaya
DYEAR=1990
DGENRE=Country
TTITLE0=Go On And Break Your Crazy Heart
TTITLE1=My Main Trial Is Yet To Come
TTITLE2=Log Train
TTITLE3=I've Been A Fool About You
TTITLE4=I Can't Escape From You
TTITLE5=Wild Side Of Life
TTITLE6=Keep It On Your Mind
TTITLE7=No, Not Now
TTITLE8=Jambalaya
TTITLE9=Dear John
EXTD=
EXTT0=
EXTT1=
EXTT2=
EXTT3=
EXTT4=
EXTT5=
EXTT6=
EXTT7=
EXTT8=
EXTT9=
PLAYORDER=
